<mxfile host="app.diagrams.net" modified="2024-04-19T13:25:11.799Z" agent="Mozilla/5.0 (Macintosh; Intel Mac OS X 10_15_7) AppleWebKit/537.36 (KHTML, like Gecko) Chrome/122.0.0.0 Safari/537.36" etag="r2hD3y1B1znnjWeM8bsy" version="24.2.5" type="device">
  <diagram id="C5RBs43oDa-KdzZeNtuy" name="Page-1">
    <mxGraphModel dx="2133" dy="801" grid="1" gridSize="10" guides="1" tooltips="1" connect="1" arrows="1" fold="1" page="1" pageScale="1" pageWidth="827" pageHeight="1169" math="0" shadow="0">
      <root>
        <mxCell id="WIyWlLk6GJQsqaUBKTNV-0" />
        <mxCell id="WIyWlLk6GJQsqaUBKTNV-1" parent="WIyWlLk6GJQsqaUBKTNV-0" />
        <mxCell id="WIyWlLk6GJQsqaUBKTNV-2" value="" style="rounded=0;html=1;jettySize=auto;orthogonalLoop=1;fontSize=11;endArrow=block;endFill=0;endSize=8;strokeWidth=1;shadow=0;labelBackgroundColor=none;edgeStyle=orthogonalEdgeStyle;exitX=0.5;exitY=1;exitDx=0;exitDy=0;" parent="WIyWlLk6GJQsqaUBKTNV-1" source="ERhI1bJcCu4Y9x2Y2j1I-29" target="WIyWlLk6GJQsqaUBKTNV-6" edge="1">
          <mxGeometry relative="1" as="geometry">
            <mxPoint x="-399.97" y="300" as="sourcePoint" />
          </mxGeometry>
        </mxCell>
        <mxCell id="WIyWlLk6GJQsqaUBKTNV-3" value="Initialize:&lt;div&gt;deck of cards and empty hands&lt;/div&gt;" style="rounded=1;whiteSpace=wrap;html=1;fontSize=12;glass=0;strokeWidth=1;shadow=0;" parent="WIyWlLk6GJQsqaUBKTNV-1" vertex="1">
          <mxGeometry x="-459.97" y="150" width="120" height="70" as="geometry" />
        </mxCell>
        <mxCell id="WIyWlLk6GJQsqaUBKTNV-5" value="stands" style="edgeStyle=orthogonalEdgeStyle;rounded=0;html=1;jettySize=auto;orthogonalLoop=1;fontSize=11;endArrow=block;endFill=0;endSize=8;strokeWidth=1;shadow=0;labelBackgroundColor=none;" parent="WIyWlLk6GJQsqaUBKTNV-1" source="WIyWlLk6GJQsqaUBKTNV-6" target="WIyWlLk6GJQsqaUBKTNV-7" edge="1">
          <mxGeometry x="-0.2" y="10" relative="1" as="geometry">
            <mxPoint as="offset" />
          </mxGeometry>
        </mxCell>
        <mxCell id="WIyWlLk6GJQsqaUBKTNV-6" value="Player draws/stands?" style="rhombus;whiteSpace=wrap;html=1;shadow=0;fontFamily=Helvetica;fontSize=12;align=center;strokeWidth=1;spacing=6;spacingTop=-4;" parent="WIyWlLk6GJQsqaUBKTNV-1" vertex="1">
          <mxGeometry x="-459.97" y="360" width="120" height="80" as="geometry" />
        </mxCell>
        <mxCell id="WIyWlLk6GJQsqaUBKTNV-7" value="Bank draws until &amp;gt;= 21" style="rounded=1;whiteSpace=wrap;html=1;fontSize=12;glass=0;strokeWidth=1;shadow=0;" parent="WIyWlLk6GJQsqaUBKTNV-1" vertex="1">
          <mxGeometry x="-226.97000000000003" y="380" width="140" height="40" as="geometry" />
        </mxCell>
        <mxCell id="ERhI1bJcCu4Y9x2Y2j1I-2" style="edgeStyle=orthogonalEdgeStyle;rounded=0;orthogonalLoop=1;jettySize=auto;html=1;endArrow=block;endFill=0;" edge="1" parent="WIyWlLk6GJQsqaUBKTNV-1" source="ERhI1bJcCu4Y9x2Y2j1I-0" target="WIyWlLk6GJQsqaUBKTNV-3">
          <mxGeometry relative="1" as="geometry" />
        </mxCell>
        <mxCell id="ERhI1bJcCu4Y9x2Y2j1I-0" value="Game start" style="whiteSpace=wrap;html=1;rounded=1;glass=0;strokeWidth=1;shadow=0;fillColor=#00996e;strokeColor=#0e5a44;fontColor=#FFFFFF;fontStyle=1" vertex="1" parent="WIyWlLk6GJQsqaUBKTNV-1">
          <mxGeometry x="-459.97" y="80" width="120" height="40" as="geometry" />
        </mxCell>
        <mxCell id="ERhI1bJcCu4Y9x2Y2j1I-13" value="draws" style="edgeStyle=orthogonalEdgeStyle;rounded=0;html=1;jettySize=auto;orthogonalLoop=1;fontSize=11;endArrow=block;endFill=0;endSize=8;strokeWidth=1;shadow=0;labelBackgroundColor=none;entryX=1;entryY=0.5;entryDx=0;entryDy=0;exitX=0;exitY=0.5;exitDx=0;exitDy=0;" edge="1" target="ERhI1bJcCu4Y9x2Y2j1I-14" parent="WIyWlLk6GJQsqaUBKTNV-1" source="WIyWlLk6GJQsqaUBKTNV-6">
          <mxGeometry x="-0.1466" y="-10" relative="1" as="geometry">
            <mxPoint as="offset" />
            <mxPoint x="-469.97" y="390" as="sourcePoint" />
            <mxPoint x="-509.97" y="390" as="targetPoint" />
          </mxGeometry>
        </mxCell>
        <mxCell id="ERhI1bJcCu4Y9x2Y2j1I-15" value="" style="edgeStyle=orthogonalEdgeStyle;rounded=0;orthogonalLoop=1;jettySize=auto;labelBackgroundColor=none;html=1;endArrow=block;endFill=0;entryX=0.5;entryY=0;entryDx=0;entryDy=0;" edge="1" parent="WIyWlLk6GJQsqaUBKTNV-1" target="ERhI1bJcCu4Y9x2Y2j1I-16">
          <mxGeometry relative="1" as="geometry">
            <mxPoint x="-609.9699999999999" y="460" as="targetPoint" />
            <mxPoint x="-609.9699999999999" y="410" as="sourcePoint" />
          </mxGeometry>
        </mxCell>
        <mxCell id="ERhI1bJcCu4Y9x2Y2j1I-14" value="Player draws 1 card" style="rounded=1;whiteSpace=wrap;html=1;fontSize=12;glass=0;strokeWidth=1;shadow=0;" vertex="1" parent="WIyWlLk6GJQsqaUBKTNV-1">
          <mxGeometry x="-659.9699999999999" y="380" width="140" height="40" as="geometry" />
        </mxCell>
        <mxCell id="ERhI1bJcCu4Y9x2Y2j1I-16" value="&amp;gt; 21?" style="rhombus;whiteSpace=wrap;html=1;shadow=0;fontFamily=Helvetica;fontSize=12;align=center;strokeWidth=1;spacing=6;spacingTop=-4;" vertex="1" parent="WIyWlLk6GJQsqaUBKTNV-1">
          <mxGeometry x="-649.9699999999999" y="450" width="80" height="60" as="geometry" />
        </mxCell>
        <mxCell id="ERhI1bJcCu4Y9x2Y2j1I-21" value="True" style="edgeStyle=orthogonalEdgeStyle;rounded=0;html=1;jettySize=auto;orthogonalLoop=1;fontSize=11;endArrow=block;endFill=0;endSize=8;strokeWidth=1;shadow=0;labelBackgroundColor=none;exitX=1;exitY=0.5;exitDx=0;exitDy=0;entryX=0;entryY=0.5;entryDx=0;entryDy=0;" edge="1" parent="WIyWlLk6GJQsqaUBKTNV-1" source="ERhI1bJcCu4Y9x2Y2j1I-16" target="ERhI1bJcCu4Y9x2Y2j1I-61">
          <mxGeometry x="-0.8929" y="10" relative="1" as="geometry">
            <mxPoint x="1" as="offset" />
            <mxPoint x="-570.4899999999999" y="510" as="sourcePoint" />
            <mxPoint x="-476.97" y="990" as="targetPoint" />
            <Array as="points">
              <mxPoint x="-526.97" y="480" />
              <mxPoint x="-526.97" y="740" />
            </Array>
          </mxGeometry>
        </mxCell>
        <mxCell id="ERhI1bJcCu4Y9x2Y2j1I-22" value="" style="edgeStyle=orthogonalEdgeStyle;rounded=0;orthogonalLoop=1;jettySize=auto;labelBackgroundColor=none;html=1;endArrow=block;endFill=0;entryX=0.5;entryY=0;entryDx=0;entryDy=0;exitX=0.5;exitY=1;exitDx=0;exitDy=0;" edge="1" target="ERhI1bJcCu4Y9x2Y2j1I-23" parent="WIyWlLk6GJQsqaUBKTNV-1" source="WIyWlLk6GJQsqaUBKTNV-7">
          <mxGeometry relative="1" as="geometry">
            <mxPoint x="-209.97000000000003" y="460" as="targetPoint" />
            <mxPoint x="-209.97000000000003" y="410" as="sourcePoint" />
          </mxGeometry>
        </mxCell>
        <mxCell id="ERhI1bJcCu4Y9x2Y2j1I-23" value="&amp;gt; 21?" style="rhombus;whiteSpace=wrap;html=1;shadow=0;fontFamily=Helvetica;fontSize=12;align=center;strokeWidth=1;spacing=6;spacingTop=-4;" vertex="1" parent="WIyWlLk6GJQsqaUBKTNV-1">
          <mxGeometry x="-196.97000000000003" y="450" width="80" height="60" as="geometry" />
        </mxCell>
        <mxCell id="ERhI1bJcCu4Y9x2Y2j1I-24" value="True" style="edgeStyle=orthogonalEdgeStyle;rounded=0;html=1;jettySize=auto;orthogonalLoop=1;fontSize=11;endArrow=block;endFill=0;endSize=8;strokeWidth=1;shadow=0;labelBackgroundColor=none;entryX=1;entryY=0.5;entryDx=0;entryDy=0;exitX=0.5;exitY=1;exitDx=0;exitDy=0;" edge="1" source="ERhI1bJcCu4Y9x2Y2j1I-23" parent="WIyWlLk6GJQsqaUBKTNV-1" target="ERhI1bJcCu4Y9x2Y2j1I-64">
          <mxGeometry x="-0.8988" y="20" relative="1" as="geometry">
            <mxPoint as="offset" />
            <mxPoint x="-116.97" y="530" as="sourcePoint" />
            <mxPoint x="-89.97" y="850" as="targetPoint" />
            <Array as="points">
              <mxPoint x="-156.97000000000003" y="740" />
            </Array>
          </mxGeometry>
        </mxCell>
        <mxCell id="ERhI1bJcCu4Y9x2Y2j1I-28" value="False" style="edgeStyle=orthogonalEdgeStyle;rounded=0;html=1;jettySize=auto;orthogonalLoop=1;fontSize=11;endArrow=block;endFill=0;endSize=8;strokeWidth=1;shadow=0;labelBackgroundColor=none;exitX=0;exitY=0.5;exitDx=0;exitDy=0;" edge="1" parent="WIyWlLk6GJQsqaUBKTNV-1" source="ERhI1bJcCu4Y9x2Y2j1I-16">
          <mxGeometry x="-0.9259" y="-10" relative="1" as="geometry">
            <mxPoint as="offset" />
            <mxPoint x="-669.9699999999999" y="540" as="sourcePoint" />
            <mxPoint x="-399.97" y="320" as="targetPoint" />
            <Array as="points">
              <mxPoint x="-699.9699999999999" y="480" />
              <mxPoint x="-699.9699999999999" y="320" />
            </Array>
          </mxGeometry>
        </mxCell>
        <mxCell id="ERhI1bJcCu4Y9x2Y2j1I-29" value="Player draws 1 card" style="whiteSpace=wrap;html=1;rounded=1;glass=0;strokeWidth=1;shadow=0;" vertex="1" parent="WIyWlLk6GJQsqaUBKTNV-1">
          <mxGeometry x="-459.97" y="250" width="120" height="40" as="geometry" />
        </mxCell>
        <mxCell id="ERhI1bJcCu4Y9x2Y2j1I-31" value="" style="rounded=0;html=1;jettySize=auto;orthogonalLoop=1;fontSize=11;endArrow=block;endFill=0;endSize=8;strokeWidth=1;shadow=0;labelBackgroundColor=none;edgeStyle=orthogonalEdgeStyle;exitX=0.5;exitY=1;exitDx=0;exitDy=0;entryX=0.5;entryY=0;entryDx=0;entryDy=0;" edge="1" parent="WIyWlLk6GJQsqaUBKTNV-1" source="WIyWlLk6GJQsqaUBKTNV-3" target="ERhI1bJcCu4Y9x2Y2j1I-29">
          <mxGeometry relative="1" as="geometry">
            <mxPoint x="-400.20000000000005" y="230" as="sourcePoint" />
            <mxPoint x="-399.97" y="250" as="targetPoint" />
          </mxGeometry>
        </mxCell>
        <mxCell id="ERhI1bJcCu4Y9x2Y2j1I-33" value="False" style="edgeStyle=orthogonalEdgeStyle;rounded=0;html=1;jettySize=auto;orthogonalLoop=1;fontSize=11;endArrow=block;endFill=0;endSize=8;strokeWidth=1;shadow=0;labelBackgroundColor=none;entryX=0.5;entryY=0;entryDx=0;entryDy=0;exitX=0;exitY=0.5;exitDx=0;exitDy=0;" edge="1" parent="WIyWlLk6GJQsqaUBKTNV-1" source="ERhI1bJcCu4Y9x2Y2j1I-23" target="ERhI1bJcCu4Y9x2Y2j1I-35">
          <mxGeometry x="-0.3331" y="-10" relative="1" as="geometry">
            <mxPoint as="offset" />
            <mxPoint x="-229.97000000000003" y="559.98" as="sourcePoint" />
            <mxPoint x="-159.97000000000003" y="659.98" as="targetPoint" />
            <Array as="points" />
          </mxGeometry>
        </mxCell>
        <mxCell id="ERhI1bJcCu4Y9x2Y2j1I-35" value="= 21?" style="rhombus;whiteSpace=wrap;html=1;shadow=0;fontFamily=Helvetica;fontSize=12;align=center;strokeWidth=1;spacing=6;spacingTop=-4;" vertex="1" parent="WIyWlLk6GJQsqaUBKTNV-1">
          <mxGeometry x="-366.97" y="540" width="80" height="60" as="geometry" />
        </mxCell>
        <mxCell id="ERhI1bJcCu4Y9x2Y2j1I-56" value="True" style="edgeStyle=orthogonalEdgeStyle;rounded=0;html=1;jettySize=auto;orthogonalLoop=1;fontSize=11;endArrow=block;endFill=0;endSize=8;strokeWidth=1;shadow=0;labelBackgroundColor=none;exitX=0;exitY=0.5;exitDx=0;exitDy=0;entryX=0.163;entryY=0;entryDx=0;entryDy=0;entryPerimeter=0;" edge="1" parent="WIyWlLk6GJQsqaUBKTNV-1" source="ERhI1bJcCu4Y9x2Y2j1I-35" target="ERhI1bJcCu4Y9x2Y2j1I-61">
          <mxGeometry x="-0.9032" y="-10" relative="1" as="geometry">
            <mxPoint as="offset" />
            <mxPoint x="-259.97" y="599.72" as="sourcePoint" />
            <mxPoint x="-359.97" y="620" as="targetPoint" />
          </mxGeometry>
        </mxCell>
        <mxCell id="ERhI1bJcCu4Y9x2Y2j1I-57" value="Bank &amp;lt; Player?" style="rhombus;whiteSpace=wrap;html=1;shadow=0;fontFamily=Helvetica;fontSize=12;align=center;strokeWidth=1;spacing=6;spacingTop=-4;" vertex="1" parent="WIyWlLk6GJQsqaUBKTNV-1">
          <mxGeometry x="-386.97" y="630" width="120" height="60" as="geometry" />
        </mxCell>
        <mxCell id="ERhI1bJcCu4Y9x2Y2j1I-61" value="Bank wins" style="whiteSpace=wrap;html=1;rounded=1;glass=0;strokeWidth=1;shadow=0;" vertex="1" parent="WIyWlLk6GJQsqaUBKTNV-1">
          <mxGeometry x="-466.97" y="720" width="80" height="40" as="geometry" />
        </mxCell>
        <mxCell id="ERhI1bJcCu4Y9x2Y2j1I-75" style="edgeStyle=orthogonalEdgeStyle;rounded=0;orthogonalLoop=1;jettySize=auto;html=1;entryX=1;entryY=0.5;entryDx=0;entryDy=0;exitX=0.5;exitY=1;exitDx=0;exitDy=0;endArrow=block;endFill=0;" edge="1" parent="WIyWlLk6GJQsqaUBKTNV-1" source="ERhI1bJcCu4Y9x2Y2j1I-64" target="ERhI1bJcCu4Y9x2Y2j1I-67">
          <mxGeometry relative="1" as="geometry">
            <mxPoint x="-266.97" y="810" as="targetPoint" />
          </mxGeometry>
        </mxCell>
        <mxCell id="ERhI1bJcCu4Y9x2Y2j1I-64" value="Player wins" style="whiteSpace=wrap;html=1;rounded=1;glass=0;strokeWidth=1;shadow=0;" vertex="1" parent="WIyWlLk6GJQsqaUBKTNV-1">
          <mxGeometry x="-306.97" y="720" width="80" height="40" as="geometry" />
        </mxCell>
        <mxCell id="ERhI1bJcCu4Y9x2Y2j1I-67" value="Game over" style="whiteSpace=wrap;html=1;rounded=1;glass=0;strokeWidth=1;shadow=0;fillColor=#00996e;strokeColor=#0e5a44;fontColor=#FFFFFF;fontStyle=1" vertex="1" parent="WIyWlLk6GJQsqaUBKTNV-1">
          <mxGeometry x="-439.97" y="790" width="80" height="40" as="geometry" />
        </mxCell>
        <mxCell id="ERhI1bJcCu4Y9x2Y2j1I-69" style="edgeStyle=orthogonalEdgeStyle;rounded=0;orthogonalLoop=1;jettySize=auto;html=1;endArrow=block;endFill=0;entryX=0.163;entryY=0;entryDx=0;entryDy=0;entryPerimeter=0;" edge="1" parent="WIyWlLk6GJQsqaUBKTNV-1" source="ERhI1bJcCu4Y9x2Y2j1I-61" target="ERhI1bJcCu4Y9x2Y2j1I-67">
          <mxGeometry relative="1" as="geometry">
            <mxPoint x="-406.97" y="780" as="targetPoint" />
            <Array as="points" />
          </mxGeometry>
        </mxCell>
        <mxCell id="ERhI1bJcCu4Y9x2Y2j1I-71" value="False" style="edgeStyle=orthogonalEdgeStyle;rounded=0;html=1;jettySize=auto;orthogonalLoop=1;fontSize=11;endArrow=block;endFill=0;endSize=8;strokeWidth=1;shadow=0;labelBackgroundColor=none;entryX=0.5;entryY=0;entryDx=0;entryDy=0;" edge="1" parent="WIyWlLk6GJQsqaUBKTNV-1" source="ERhI1bJcCu4Y9x2Y2j1I-35" target="ERhI1bJcCu4Y9x2Y2j1I-57">
          <mxGeometry x="-0.6" y="20" relative="1" as="geometry">
            <mxPoint as="offset" />
            <mxPoint x="-436.97" y="640" as="sourcePoint" />
            <mxPoint x="-296.97" y="620" as="targetPoint" />
            <Array as="points" />
          </mxGeometry>
        </mxCell>
        <mxCell id="ERhI1bJcCu4Y9x2Y2j1I-72" value="False" style="edgeStyle=orthogonalEdgeStyle;rounded=0;html=1;jettySize=auto;orthogonalLoop=1;fontSize=11;endArrow=block;endFill=0;endSize=8;strokeWidth=1;shadow=0;labelBackgroundColor=none;entryX=0.697;entryY=0.028;entryDx=0;entryDy=0;entryPerimeter=0;exitX=0.013;exitY=0.494;exitDx=0;exitDy=0;exitPerimeter=0;" edge="1" parent="WIyWlLk6GJQsqaUBKTNV-1" source="ERhI1bJcCu4Y9x2Y2j1I-57" target="ERhI1bJcCu4Y9x2Y2j1I-61">
          <mxGeometry x="-0.7055" y="-10" relative="1" as="geometry">
            <mxPoint as="offset" />
            <mxPoint x="-400" y="660" as="sourcePoint" />
            <mxPoint x="-410.7700000000001" y="718.8799999999999" as="targetPoint" />
            <Array as="points">
              <mxPoint x="-411" y="660" />
            </Array>
          </mxGeometry>
        </mxCell>
        <mxCell id="ERhI1bJcCu4Y9x2Y2j1I-73" value="True" style="edgeStyle=orthogonalEdgeStyle;rounded=0;html=1;jettySize=auto;orthogonalLoop=1;fontSize=11;endArrow=block;endFill=0;endSize=8;strokeWidth=1;shadow=0;labelBackgroundColor=none;exitX=0.997;exitY=0.495;exitDx=0;exitDy=0;exitPerimeter=0;entryX=0.75;entryY=0;entryDx=0;entryDy=0;" edge="1" parent="WIyWlLk6GJQsqaUBKTNV-1" source="ERhI1bJcCu4Y9x2Y2j1I-57" target="ERhI1bJcCu4Y9x2Y2j1I-64">
          <mxGeometry x="-0.9262" y="10" relative="1" as="geometry">
            <mxPoint as="offset" />
            <mxPoint x="-256.97" y="659.66" as="sourcePoint" />
            <mxPoint x="-246.97000000000003" y="950" as="targetPoint" />
            <Array as="points">
              <mxPoint x="-246.97000000000003" y="660" />
            </Array>
          </mxGeometry>
        </mxCell>
      </root>
    </mxGraphModel>
  </diagram>
</mxfile>
